<?xml version="1.0" encoding="utf-8"?>
<!-- Generator: Adobe Illustrator 19.0.0, SVG Export Plug-In . SVG Version: 6.00 Build 0)  -->
<svg version="1.1" id="Layer_1" xmlns="http://www.w3.org/2000/svg" xmlns:xlink="http://www.w3.org/1999/xlink" x="0px" y="0px"
	 viewBox="0 0 500 500" style="enable-background:new 0 0 500 500;" xml:space="preserve">
<style type="text/css">
	.aws-cloudfront-st0{fill:#5E1F18;}
	.aws-cloudfront-st1{fill:#8C3123;}
	.aws-cloudfront-st2{fill:#E05243;}
	.aws-cloudfront-st3{fill:#F2B0A9;}
</style>
<g id="XMLID_1_">
	<polygon id="XMLID_3_" class="aws-cloudfront-st0" points="295.1,218.7 365.3,211.2 401.7,218.8 401.9,218.9 334.8,222.9 295,218.8 	"/>
	<polyline id="XMLID_4_" class="aws-cloudfront-st1" points="295,218.8 365.3,213.3 365.8,212.6 365.8,125.9 365.3,125 295,143.2 295,218.8 	"/>
	<polyline id="XMLID_5_" class="aws-cloudfront-st2" points="401.9,218.9 365.3,213.3 365.3,125 401.9,143.3 401.9,218.9 	"/>
	<polyline id="XMLID_6_" class="aws-cloudfront-st3" points="295,281.2 296.1,281.9 365.3,286.6 400.6,281.9 401.9,281.2 334.8,277.1 295,281.2
		"/>
	<polyline id="XMLID_7_" class="aws-cloudfront-st1" points="295,281.2 365.3,286.4 365.5,286.7 365.5,374.4 365.3,374.9 295,356.8 295,281.2 	"/>
	<polyline id="XMLID_8_" class="aws-cloudfront-st2" points="401.9,281.2 365.3,286.4 365.3,374.9 401.9,356.7 401.9,281.2 	"/>
	<polygon id="XMLID_9_" class="aws-cloudfront-st0" points="203.9,218.7 134.4,212.7 98.4,218.7 98.1,218.9 165.2,222.9 204.2,218.9 	"/>
	<polyline id="XMLID_10_" class="aws-cloudfront-st1" points="98.1,218.9 134.4,213.6 135.5,212.8 135.5,126 134.4,125 98.1,143.3 98.1,218.9 	"/>
	<polyline id="XMLID_11_" class="aws-cloudfront-st2" points="204.2,218.9 134.4,213.6 134.4,125 204.2,143.2 204.2,218.9 	"/>
	<polyline id="XMLID_12_" class="aws-cloudfront-st3" points="204.2,281.2 202.6,282.4 134.4,287.5 99.3,282.4 98.1,281.2 165.2,277.1 204.2,281.2
			"/>
	<polyline id="XMLID_13_" class="aws-cloudfront-st1" points="98.1,281.2 134.4,286.4 135.3,287.5 135.4,373.3 134.4,374.9 98.1,356.7 98.1,281.2
		"/>
	<polyline id="XMLID_14_" class="aws-cloudfront-st2" points="204.2,281.2 134.4,286.4 134.4,374.9 204.2,356.8 204.2,281.2 	"/>
	<polyline id="XMLID_15_" class="aws-cloudfront-st3" points="322.5,292.5 250,285.4 176.8,292.5 177.8,293.4 249.6,304.8 321.5,293.4 322.5,292.5
			"/>
	<polyline id="XMLID_16_" class="aws-cloudfront-st1" points="176.8,292.5 249.6,303.2 250.4,304.2 250.5,431.1 249.6,432.5 176.8,396.1
		176.8,292.5 	"/>
	<polyline id="XMLID_17_" class="aws-cloudfront-st2" points="322.5,292.5 249.6,303.2 249.6,432.5 322.5,396.1 322.5,292.5 	"/>
	<polygon id="XMLID_18_" class="aws-cloudfront-st0" points="250,214.5 176.8,207.5 177,207.4 249.6,196.1 322.3,207.4 322.5,207.5 	"/>
	<polyline id="XMLID_19_" class="aws-cloudfront-st1" points="176.8,207.5 249.6,196.9 250,196.5 249.8,67.7 249.6,67.5 176.8,103.9 176.8,207.5
		"/>
	<polyline id="XMLID_20_" class="aws-cloudfront-st2" points="322.5,207.5 249.6,196.9 249.6,67.5 322.5,103.9 322.5,207.5 	"/>
</g>
</svg>
