<?xml version="1.0" encoding="utf-8"?>
<!-- Generator: Adobe Illustrator 19.0.0, SVG Export Plug-In . SVG Version: 6.00 Build 0)  -->
<svg version="1.1" id="Layer_1" xmlns="http://www.w3.org/2000/svg" xmlns:xlink="http://www.w3.org/1999/xlink" x="0px" y="0px"
	 viewBox="0 0 500 500" style="enable-background:new 0 0 500 500;" xml:space="preserve">
<style type="text/css">
	.aws-route-53-st0{fill:#9D5025;}
	.aws-route-53-st1{fill:#F68536;}
	.aws-route-53-st2{fill:#6B3A19;}
</style>
<g id="XMLID_1_">
	<polyline id="XMLID_2_" class="aws-route53-st0" points="186.1,400.6 250,432.5 256.2,427.8 253.6,71.7 250,67.5 186.1,99.4 186.1,400.6 	"/>
	<polyline id="XMLID_3_" class="aws-route53-st1" points="313.8,400.6 250,432.5 250,67.5 313.8,99.4 313.8,400.6 	"/>
	<polyline id="XMLID_4_" class="aws-route53-st2" points="225.9,200.4 203.5,203.6 98.9,191.8 99.3,190.7 116.3,185.6 118.1,186.6 118.5,185.6
		225.2,198.1 225.9,200.4 	"/>
	<polyline id="XMLID_5_" class="aws-route53-st0" points="98.9,143.1 118.1,133.4 118.1,186.6 98.9,191.8 98.9,143.1 	"/>
	<polyline id="XMLID_6_" class="aws-route53-st2" points="401.1,222.3 294.1,228 274,226.6 277.8,225.1 382.2,219.1 401.1,222.3 	"/>
	<polyline id="XMLID_7_" class="aws-route53-st1" points="225.9,200.4 118.1,186.6 118.1,133.4 225.9,158.7 225.9,200.4 	"/>
	<polyline id="XMLID_8_" class="aws-route53-st0" points="381.8,164.6 274,183.1 274,226.6 381.8,220.2 382.5,218.9 382.3,165.6 381.8,164.6
		"/>
	<polyline id="XMLID_9_" class="aws-route53-st1" points="401.1,222.3 381.8,219.8 381.8,164.6 401.1,171.7 401.1,222.3 	"/>
</g>
</svg>
