<svg viewBox="0 0 300 216.5279" width="5000px" height="3608.798217773438px" xmlns="http://www.w3.org/2000/svg" xmlns:xlink="http://www.w3.org/1999/xlink" preserveAspectRatio="none"><defs></defs><style>.a60p5ZquTEfillColor {fill:#F7F7F7;fill-opacity:0;}.ahs7pIl34ofillColor {fill:#F7F7F7;fill-opacity:0.1;}.background {fill:#FFFFFF;fill-opacity:1;}.companyName {fill:#D03737;fill-opacity:1;}.icon3-str {stroke:#B2B2B2;stroke-opacity:1;}.shapeStroke-str {stroke:#0C1248;stroke-opacity:1;}.text-str {stroke:#D03737;stroke-opacity:1;}</style><g opacity="1" transform="rotate(0 0 0)">
<svg width="150.0001" height="216.5279" x="0" y="0" version="1.1" preserveAspectRatio="none" viewBox="0 0 150.0001 216.5279">
  <rect x="5" y="5" width="140.0001" height="206.5279" class="a60p5ZquTEfillColor text-str" style="stroke-width:10;" rx="0px" ry="0px"></rect>
</svg>
</g><g opacity="1" transform="rotate(0 150 0)">
<svg width="150" height="216.5279" x="150" y="0" version="1.1" preserveAspectRatio="none" viewBox="0 0 150 216.5279">
  <rect x="5" y="5" width="140" height="206.5279" class="ahs7pIl34ofillColor icon3-str" style="stroke-width:10;" rx="0px" ry="0px"></rect>
</svg>
</g><g opacity="1" transform="rotate(0 9.022000000000006 9.02200000000002)">
<svg width="281.956" height="198.4839" x="9.022000000000006" y="9.02200000000002" version="1.1" preserveAspectRatio="none" viewBox="0 0 281.956 198.4839">
  <rect x="0" y="0" width="281.956" height="198.4839" class="background shapeStroke-str" style="stroke-width:0;" rx="0px" ry="0px"></rect>
</svg>
</g><g opacity="1" transform="rotate(0 45.110000000000014 54.132000000000005)">
<svg width="209.7801" height="108.2639" x="45.110000000000014" y="54.132000000000005" version="1.1" preserveAspectRatio="none" viewBox="4 -30.16 58.44 30.16">
  <g transform="matrix(1 0 0 1 0 0)" class="companyName"><path d="M33.32-30.16L33.40-30.16L33.40 0L28.76 0L28.76-16.84L18.56-2.36L18.48-2.36L8.52-16.16L8.52 0L4 0L4-30.16L4.04-30.16L18.56-9.60L33.32-30.16Z M43.40-29.12L48.08-29.12L48.08-4.48L62.44-4.48L62.44 0L43.40 0L43.40-29.12Z"></path></g>
</svg>
</g></svg>
