<svg viewBox="0 0 300 216.5279" width="5000px" height="3608.798217773438px" xmlns="http://www.w3.org/2000/svg" xmlns:xlink="http://www.w3.org/1999/xlink" preserveAspectRatio="none"><defs></defs><style>.a60p5ZquTEfillColor {fill:#FFFFFF;fill-opacity:0;}.ahs7pIl34ofillColor {fill:#FFFFFF;fill-opacity:0.1;}.background {fill:#FFFFFF;fill-opacity:1;}.companyName {fill:#FFFFFF;fill-opacity:1;}.icon3-str {stroke:#D9D9D9;stroke-opacity:1;}.shapeStroke-str {stroke:#D9D9D9;stroke-opacity:1;}.text-str {stroke:#FFFFFF;stroke-opacity:1;}</style>
  <g opacity="1">
    <svg width="280.0001" height="216.5279" x="0" y="0" version="1.1" preserveAspectRatio="none" viewBox="0 0 280.0001 216.5279">
      <rect width="280.0001" height="206.5279" class="a60p5ZquTEfillColor text-str" style="stroke-width:10;" ></rect>
    </svg>
  </g>
  <g opacity="1">
    <svg width="209.7801" height="108.2639" x="45.110000000000014" y="54.132000000000005" version="1.1" preserveAspectRatio="none" viewBox="4 -30.16 58.44 30.16">
      <g transform="matrix(1 0 0 1 0 0)" class="companyName"><path d="M33.32-30.16L33.40-30.16L33.40 0L28.76 0L28.76-16.84L18.56-2.36L18.48-2.36L8.52-16.16L8.52 0L4 0L4-30.16L4.04-30.16L18.56-9.60L33.32-30.16Z M43.40-29.12L48.08-29.12L48.08-4.48L62.44-4.48L62.44 0L43.40 0L43.40-29.12Z"></path></g>
    </svg>
  </g>
</svg>
